<svg width="80" height="80" viewBox="0 0 80 80" fill="none" xmlns="http://www.w3.org/2000/svg">
<path d="M73.1821 39.9175C73.1821 47.9837 72.7419 54.0124 71.7268 58.5801C70.7284 63.0718 69.266 65.735 67.5005 67.5005C65.735 69.266 63.0718 70.7284 58.5801 71.7268C54.0124 72.7419 47.9837 73.1821 39.9175 73.1821C31.8513 73.1821 25.8226 72.7419 21.2549 71.7268C16.7632 70.7284 14.1001 69.266 12.3345 67.5005C10.569 65.735 9.10659 63.0718 8.10824 58.5801C7.09311 54.0124 6.65292 47.9837 6.65292 39.9175C6.65292 31.8513 7.09311 25.8226 8.10824 21.2549C9.10659 16.7632 10.569 14.1001 12.3345 12.3345C14.1001 10.569 16.7632 9.10659 21.2549 8.10824C25.8226 7.09311 31.8513 6.65292 39.9175 6.65292V0C7.04544 0 0 7.04544 0 39.9175C0 72.7896 7.04544 79.835 39.9175 79.835C72.7896 79.835 79.835 72.7896 79.835 39.9175C79.835 7.04544 72.7896 0 39.9175 0V6.65292C47.9837 6.65292 54.0124 7.09311 58.5801 8.10824C63.0718 9.10659 65.735 10.569 67.5005 12.3345C69.266 14.1001 70.7284 16.7632 71.7268 21.2549C72.7419 25.8226 73.1821 31.8513 73.1821 39.9175Z" fill="#E9EBF8"/>
<path d="M36.591 53.2233V43.244H26.6117C24.7745 43.244 23.2852 41.7547 23.2852 39.9175C23.2852 38.0804 24.7745 36.591 26.6117 36.591H36.591V26.6117C36.591 24.7745 38.0804 23.2852 39.9175 23.2852C41.7547 23.2852 43.244 24.7745 43.244 26.6117V36.591H53.2233C55.0605 36.591 56.5498 38.0804 56.5498 39.9175C56.5498 41.7547 55.0605 43.244 53.2233 43.244H43.244V53.2233C43.244 55.0605 41.7547 56.5498 39.9175 56.5498C38.0804 56.5498 36.591 55.0605 36.591 53.2233Z" fill="#E9EBF8"/>
</svg>
