<svg width="80" height="80" viewBox="0 0 80 80" fill="none" xmlns="http://www.w3.org/2000/svg">
<path d="M69.165 37.8814C69.165 52.0926 66.582 59.1885 62.577 63.0508C58.515 66.9677 51.3573 69.165 37.8846 69.165C24.412 69.165 17.2544 66.9675 13.1923 63.0508C9.18697 59.1885 6.60096 52.093 6.60096 37.8814C6.60106 23.6706 9.18721 16.5774 13.1923 12.7152C17.2543 8.79822 24.4114 6.60096 37.8846 6.60096V0L35.3512 0.0225619C10.5243 0.538028 0.641026 8.95309 0.0290081 35.1965L0 37.8814C0 67.1552 10.3328 75.766 37.8846 75.766L40.418 75.7402C66.0716 75.2072 75.766 66.2399 75.766 37.8814L75.737 35.1965C75.1046 8.07869 64.5744 0.000169778 37.8846 0V6.60096C51.3573 6.60105 58.515 8.7983 62.577 12.7152C66.5815 16.5776 69.1649 23.6717 69.165 37.8814Z" fill="#0B1117"/>
<path d="M64.8241 64.8225C66.113 63.5336 68.2022 63.5336 69.4911 64.8225L78.1001 73.4315C79.389 74.7204 79.389 76.8096 78.1001 78.0986C76.8112 79.3875 74.7219 79.3875 73.433 78.0986L64.8241 69.4896C63.5351 68.2007 63.5351 66.1114 64.8241 64.8225Z" fill="#0B1117"/>
</svg>
