<svg width="73" height="81" viewBox="0 0 73 81" fill="none" xmlns="http://www.w3.org/2000/svg">
<path d="M40.0457 60.0685V36.0411C40.0457 33.8294 41.8386 32.0365 44.0502 32.0365C46.2619 32.0365 48.0548 33.8294 48.0548 36.0411V60.0685C48.0548 62.2802 46.2619 64.0731 44.0502 64.0731C41.8386 64.0731 40.0457 62.2802 40.0457 60.0685Z" fill="#0B1117"/>
<path d="M24.0274 60.0685V36.0411C24.0274 33.8294 25.8203 32.0365 28.032 32.0365C30.2436 32.0365 32.0365 33.8294 32.0365 36.0411V60.0685C32.0365 62.2802 30.2436 64.0731 28.032 64.0731C25.8203 64.0731 24.0274 62.2802 24.0274 60.0685Z" fill="#0B1117"/>
<path d="M8.00913 68.0776V20.0228C8.00913 17.8112 9.80204 16.0183 12.0137 16.0183C14.2254 16.0183 16.0183 17.8112 16.0183 20.0228V68.0776C16.0183 70.2893 17.8112 72.0822 20.0228 72.0822H52.0594C54.271 72.0822 56.0639 70.2893 56.0639 68.0776V20.0228C56.0639 17.8112 57.8568 16.0183 60.0685 16.0183C62.2802 16.0183 64.0731 17.8112 64.0731 20.0228V68.0776C64.0731 74.7126 58.6943 80.0913 52.0594 80.0913H20.0228C13.3878 80.0913 8.00913 74.7126 8.00913 68.0776Z" fill="#0B1117"/>
<path d="M68.0776 16.0183C70.2893 16.0183 72.0822 17.8112 72.0822 20.0228C72.0822 22.2345 70.2893 24.0274 68.0776 24.0274H4.00457C1.79291 24.0274 0 22.2345 0 20.0228C0 17.8112 1.79291 16.0183 4.00457 16.0183H68.0776Z" fill="#0B1117"/>
<path d="M48.0548 0L48.6179 0.0391071C49.9082 0.222095 51.0437 1.02682 51.637 2.21346L59.6461 18.2317C60.6352 20.2099 59.8332 22.616 57.855 23.605C55.8769 24.5941 53.4708 23.7921 52.4817 21.8139L45.5793 8.00913H26.5029L19.6005 21.8139C18.6114 23.7921 16.2053 24.5941 14.2272 23.605C12.249 22.616 11.447 20.2099 12.4361 18.2317L20.4452 2.21346L20.7307 1.72853C21.4712 0.655447 22.7001 0 24.0274 0H48.0548Z" fill="#0B1117"/>
</svg>
