<svg width="82" height="78" viewBox="0 0 82 78" fill="none" xmlns="http://www.w3.org/2000/svg">
<path d="M55.0169 3.75306C60.0216 -1.25102 68.1346 -1.25103 73.1394 3.75306L73.8737 4.48731C78.8778 9.49209 78.8778 17.6051 73.8737 22.6099L24.3787 72.1049C23.8312 72.6524 23.144 73.0393 22.3929 73.2271L5.30492 77.4991C3.84942 77.8626 2.31071 77.4377 1.24987 76.3769C0.189027 75.3161 -0.235875 73.7773 0.127635 72.3218L4.39962 55.2339L4.57484 54.6832C4.78897 54.1473 5.11099 53.6589 5.52186 53.2481L55.0169 3.75306ZM67.0986 9.79392C65.4304 8.12647 62.7259 8.12647 61.0577 9.79392L12.3971 58.4546L10.1359 67.4866L19.1722 65.2297L67.8328 16.569C69.5003 14.9009 69.5003 12.1963 67.8328 10.5282L67.0986 9.79392Z" fill="#0B1117"/>
<path d="M48.2417 10.5282C49.9101 8.85986 52.6143 8.85986 54.2826 10.5282L67.0986 23.3441C68.7669 25.0125 68.7669 27.7167 67.0986 29.385C65.4303 31.0533 62.726 31.0533 61.0577 29.385L48.2417 16.569C46.5734 14.9007 46.5734 12.1965 48.2417 10.5282Z" fill="#0B1117"/>
<path d="M76.8941 69.0845C79.2535 69.0845 81.1661 70.9971 81.1661 73.3565C81.1661 75.7158 79.2535 77.6285 76.8941 77.6285H42.7182C40.3588 77.6285 38.4462 75.7158 38.4462 73.3565C38.4462 70.9971 40.3588 69.0845 42.7182 69.0845H76.8941Z" fill="#0B1117"/>
</svg>
