<svg width="67" height="80" viewBox="0 0 67 80" fill="none" xmlns="http://www.w3.org/2000/svg">
<path d="M37.7366 65.776V48.8287C37.7366 45.7867 38.6837 42.7998 40.4717 40.3144L58.9605 14.6122C60.1512 12.9568 60.2162 10.9543 59.4093 9.27206C58.6092 7.60484 57.1789 6.66109 55.4937 6.66053H11.114C9.42877 6.66109 7.99847 7.60484 7.19832 9.27206C6.39142 10.9543 6.45646 12.9568 7.64713 14.6122L26.136 40.3144C27.9239 42.7998 28.8711 45.7867 28.8711 48.8287V72.2024C28.8712 72.5617 28.9616 72.7644 29.0369 72.8821C29.1259 73.0211 29.253 73.1299 29.3914 73.1976C29.5296 73.265 29.6316 73.2677 29.6776 73.2626C29.6945 73.2609 29.7902 73.256 29.9736 73.0967L37.3691 66.6704C37.5586 66.5053 37.7366 66.1885 37.7366 65.776ZM44.3971 65.776C44.3971 68.0637 43.4226 70.2335 41.7368 71.6983L34.3413 78.1247L33.8827 78.4954C29.2296 81.9682 22.6505 78.7563 22.23 72.8073L22.2105 72.2024V48.8287C22.2105 47.3685 21.8122 45.9425 21.069 44.7147L20.7308 44.2041L2.2387 18.5051C-3.24626 10.8816 1.97282 0.00119302 11.114 0H55.4937C64.6348 0.00119428 69.8539 10.8817 64.369 18.5051L45.8769 44.2041L45.5387 44.7147C44.7955 45.9425 44.3971 47.3685 44.3971 48.8287V65.776Z" fill="#0B1117"/>
<path d="M43.2946 13.3211L43.6361 13.3373C45.315 13.5083 46.6249 14.9273 46.6249 16.6513C46.6249 18.3753 45.315 19.7944 43.6361 19.9653L43.2946 19.9816H23.313C21.4738 19.9816 19.9828 18.4906 19.9828 16.6513C19.9828 14.8121 21.4738 13.3211 23.313 13.3211H43.2946Z" fill="#0B1117"/>
</svg>
