<svg width="80" height="87" viewBox="0 0 80 87" fill="none" xmlns="http://www.w3.org/2000/svg">
<path d="M54.7844 43.1998C54.7844 51.5633 54.5665 58.4998 53.8704 64.1214C53.1626 69.8362 52.0309 73.5055 50.6641 75.7547C49.5103 77.6529 48.1907 78.5888 46.1008 78.9891C43.5839 79.4712 39.5266 79.224 33.121 77.2419C25.9432 75.0206 21.0028 73.6328 17.0966 72.1406C13.2951 70.6884 11.5962 69.5218 10.5997 68.3754C9.66665 67.3019 8.71838 65.513 8.07897 61.4812C7.42398 57.35 7.20006 51.623 7.20006 43.1998C7.20006 34.7766 7.424 29.0495 8.07897 24.9184C8.71837 20.8866 9.66666 19.0976 10.5997 18.0242C11.5962 16.8777 13.2951 15.7112 17.0966 14.2589C21.0028 12.7667 25.9432 11.3788 33.121 9.15769C39.5266 7.1756 43.5839 6.92832 46.1008 7.41041C48.1907 7.81079 49.5103 8.74668 50.6641 10.6448C52.0309 12.894 53.1626 16.5634 53.8704 22.2781C54.5665 27.8997 54.7844 34.8363 54.7844 43.1998ZM61.9388 37.0931C61.4596 7.629 56.8167 -5.71081 30.9905 2.28107C3.4435 10.8054 0 9.5032 0 43.1998C3.41213e-06 72.685 2.63654 75.3728 21.7514 81.2954L30.9905 84.1185C58.5385 92.6435 61.9845 76.8968 61.9845 43.1998L61.9388 37.0931Z" fill="black"/>
<path d="M41.3221 43.7829C41.3221 45.6917 42.8638 47.239 44.7656 47.239C46.6674 47.239 48.2091 45.6917 48.2091 43.7829C48.2091 41.8742 46.6674 40.3269 44.7656 40.3269C42.8638 40.3269 41.3221 41.8742 41.3221 43.7829Z" fill="black"/>
<path d="M58.5396 8.49498C56.5514 8.49498 54.9396 10.1068 54.9396 12.095C54.9396 14.0833 56.5514 15.695 58.5396 15.695C62.7578 15.695 65.442 16.0364 67.2268 16.7076C68.7791 17.2913 69.6693 18.125 70.3417 19.5693C71.121 21.2442 71.6325 23.8181 71.8956 27.9295C72.1555 31.991 72.1558 37.1287 72.1558 43.757C72.1558 50.3894 72.1551 55.4554 71.8956 59.4087C71.6323 63.4203 71.1233 65.8125 70.3804 67.3119C69.7649 68.554 68.9432 69.2907 67.3569 69.8186C65.5275 70.4272 62.8032 70.7045 58.5396 70.7045C56.5514 70.7045 54.9396 72.3163 54.9396 74.3045C54.9401 76.2923 56.5517 77.9046 58.5396 77.9046C62.8848 77.9046 66.6184 77.6555 69.6315 76.653C72.887 75.5696 75.295 73.6086 76.8316 70.5076C78.2406 67.6637 78.8069 64.0646 79.0816 59.8798C79.3601 55.6364 79.3558 50.2955 79.3558 43.757C79.3558 37.2169 79.3596 31.8129 79.0816 27.469C78.8068 23.1751 78.2427 19.4764 76.8703 16.5283C75.3906 13.3498 73.0511 11.2052 69.7616 9.96804C66.704 8.81832 62.9302 8.49498 58.5396 8.49498Z" fill="black"/>
</svg>
