<svg width="72" height="79" viewBox="0 0 72 79" fill="none" xmlns="http://www.w3.org/2000/svg">
<path d="M22.9091 19.6364C22.9091 12.4065 28.7701 6.54545 36 6.54545C43.2299 6.54545 49.0909 12.4065 49.0909 19.6364C49.0909 26.8663 43.2299 32.7273 36 32.7273V39.2727C46.8449 39.2727 55.6364 30.4812 55.6364 19.6364C55.6364 8.7915 46.8449 0 36 0C25.1551 0 16.3636 8.7915 16.3636 19.6364C16.3636 30.4812 25.1551 39.2727 36 39.2727V32.7273C28.7701 32.7273 22.9091 26.8663 22.9091 19.6364Z" fill="#0B1117"/>
<path d="M65.4545 62.1818C65.4545 65.1565 65.0816 66.6954 64.6651 67.5479C64.3695 68.1525 63.8857 68.7878 62.4087 69.4592C60.7178 70.2277 57.9678 70.9163 53.4727 71.3704C49.0401 71.8181 43.346 72 36 72C28.654 72 22.9599 71.8181 18.5273 71.3704C14.0322 70.9163 11.2822 70.2277 9.59126 69.4592C8.11426 68.7878 7.63046 68.1525 7.33487 67.5479C6.91837 66.6954 6.54545 65.1565 6.54545 62.1818C6.54545 59.2071 6.91837 57.6682 7.33487 56.8157C7.63046 56.2111 8.11426 55.5758 9.59126 54.9045C11.2822 54.1359 14.0322 53.4474 18.5273 52.9933C22.9599 52.5456 28.654 52.3636 36 52.3636V45.8182L30.7106 45.8533C6.42293 46.2077 0.394416 49.3297 0.0191761 60.9482L0 62.1818C0 75.6573 6.354 78.5455 36 78.5455C65.646 78.5455 72 75.6573 72 62.1818L71.9808 60.9482C71.5797 48.5285 64.7187 45.8182 36 45.8182V52.3636C43.346 52.3636 49.0401 52.5456 53.4727 52.9933C57.9678 53.4473 60.7178 54.1359 62.4087 54.9045C63.8857 55.5758 64.3695 56.2111 64.6651 56.8157C65.0816 57.6682 65.4545 59.2071 65.4545 62.1818Z" fill="#0B1117"/>
</svg>
