<svg width="92" height="79" viewBox="0 0 92 79" fill="none" xmlns="http://www.w3.org/2000/svg">
<path d="M84.7203 61.911C84.7203 64.965 84.4063 66.6828 84.0011 67.696C83.7006 68.4472 83.3235 68.9147 82.4642 69.3921C81.3691 70.0001 79.4135 70.6395 75.8836 71.0754C72.4042 71.505 67.8692 71.6864 61.911 71.6864C55.9527 71.6864 51.4178 71.505 47.9384 71.0754C44.4084 70.6395 42.4528 70.0001 41.3578 69.3921C40.4985 68.9147 40.1213 68.4472 39.8208 67.696C39.4156 66.6828 39.1017 64.965 39.1017 61.911C39.1017 58.857 39.4156 57.1391 39.8208 56.1259C40.1213 55.3747 40.4985 54.9072 41.3578 54.4299C42.4528 53.8218 44.4084 53.1824 47.9384 52.7465C51.4178 52.3169 55.9527 52.1356 61.911 52.1356V45.6186L57.6024 45.6536C37.817 46.0064 32.9063 49.1148 32.6006 60.6827L32.5847 61.911C32.5847 75.3277 37.7608 78.2033 61.911 78.2033C86.0611 78.2033 91.2372 75.3277 91.2372 61.911L91.2213 60.6827C90.8945 48.3171 85.3057 45.6186 61.911 45.6186V52.1356C67.8692 52.1356 72.4042 52.3169 75.8836 52.7465C79.4135 53.1824 81.3691 53.8218 82.4642 54.4299C83.3235 54.9072 83.7006 55.3747 84.0011 56.1259C84.4063 57.1391 84.7203 58.857 84.7203 61.911Z" fill="#0B1117"/>
<path d="M48.8771 19.5508C48.8771 12.3524 54.7125 6.51694 61.911 6.51694C69.1094 6.51694 74.9449 12.3524 74.9449 19.5508C74.9449 26.7493 69.1094 32.5847 61.911 32.5847V39.1017C72.7086 39.1017 81.4618 30.3485 81.4618 19.5508C81.4618 8.75321 72.7086 0 61.911 0C51.1133 0 42.3601 8.75321 42.3601 19.5508C42.3601 30.3485 51.1133 39.1017 61.911 39.1017V32.5847C54.7125 32.5847 48.8771 26.7493 48.8771 19.5508Z" fill="#0B1117"/>
<path d="M19.5508 22.8093C19.5508 14.7082 26.0152 6.51694 35.8432 6.51694C37.6428 6.51694 39.1017 7.97581 39.1017 9.77542C39.1017 11.575 37.6428 13.0339 35.8432 13.0339C30.0306 13.0339 26.0678 17.8766 26.0678 22.8093C26.0678 27.742 30.0306 32.5847 35.8432 32.5847C37.6428 32.5847 39.1017 34.0436 39.1017 35.8432C39.1017 37.6428 37.6428 39.1017 35.8432 39.1017C26.0152 39.1017 19.5508 30.9105 19.5508 22.8093Z" fill="#0B1117"/>
<path d="M6.51694 57.0233C6.51694 54.9407 6.89165 53.6737 7.41111 52.8388C7.90442 52.0462 8.73288 51.3108 10.3196 50.6845C13.7697 49.3226 19.6416 48.8771 29.3262 48.8771C31.1259 48.8771 32.5847 47.4182 32.5847 45.6186C32.5847 43.819 31.1259 42.3601 29.3262 42.3601C19.8946 42.3601 12.7313 42.7292 7.92661 44.6258C5.38686 45.6285 3.28473 47.1343 1.87744 49.3958C0.496133 51.6157 0 54.2181 0 57.0233C0 59.8387 0.498881 62.3573 1.68015 64.5012C2.88411 66.6858 4.66317 68.2392 6.79697 69.3062C10.829 71.3222 16.3462 71.6863 22.3734 71.6864C24.173 71.6864 25.6318 70.2275 25.6318 68.4279C25.6318 66.6283 24.173 65.1694 22.3734 65.1694C16.2369 65.1694 12.1962 64.7188 9.71177 63.4766C8.58777 62.9145 7.86832 62.2269 7.38884 61.3573C6.88693 60.4466 6.51694 59.0952 6.51694 57.0233Z" fill="#0B1117"/>
</svg>
